<?xml version="1.0" standalone="no"?>
<!DOCTYPE svg PUBLIC "-//W3C//DTD SVG 20010904//EN"
 "http://www.w3.org/TR/2001/REC-SVG-20010904/DTD/svg10.dtd">
<svg version="1.0" xmlns="http://www.w3.org/2000/svg"
 width="100.000000pt" height="100.000000pt" viewBox="0 0 100.000000 100.000000"
 preserveAspectRatio="xMidYMid meet">
<metadata>
Created by potrace 1.11, written by Peter Selinger 2001-2013
</metadata>
<g transform="translate(0.000000,100.000000) scale(0.100000,-0.100000)"
fill="#000000" stroke="none">
<path d="M679 890 c-14 -4 -36 -13 -49 -20 -14 -8 -67 -13 -134 -14 -88 -1
-119 2 -148 16 -21 10 -49 18 -63 18 -26 0 -27 -3 -30 -80 -1 -19 -9 -52 -18
-73 -23 -49 -26 -86 -14 -146 15 -79 66 -122 170 -145 l27 -6 -21 -29 c-38
-52 -75 -48 -135 15 -17 19 -41 34 -54 34 -17 0 -20 -3 -11 -13 7 -10 7 -17 0
-24 -8 -8 -8 -13 0 -17 6 -4 11 0 11 8 0 27 16 18 44 -24 29 -45 64 -63 107
-56 25 4 27 1 27 -28 0 -29 -4 -33 -41 -44 -199 -55 -95 -163 156 -164 117 0
208 23 246 61 32 32 11 66 -56 91 -30 11 -60 20 -68 20 -12 0 -15 14 -15 63 0
40 -5 70 -16 85 -8 12 -12 22 -7 23 72 6 135 41 162 90 20 35 23 51 19 117 -2
54 -9 85 -23 106 -11 17 -19 48 -20 77 -2 58 -11 69 -46 59z m-174 -556 c1
-24 -2 -47 -6 -50 -5 -3 -9 21 -9 52 0 67 13 65 15 -2z m-60 -3 c0 -22 -3 -43
-7 -47 -5 -4 -8 11 -8 33 0 32 6 53 15 53 0 0 1 -18 0 -39z m123 -17 c0 -19
-4 -34 -9 -34 -5 0 -9 21 -9 48 0 31 3 42 9 33 5 -8 9 -29 9 -47z"/>
<path d="M185 560 c-3 -6 1 -7 9 -4 18 7 21 14 7 14 -6 0 -13 -4 -16 -10z"/>
</g>
</svg>
